<svg id="Layer_1" data-name="Layer 1" xmlns="http://www.w3.org/2000/svg" viewBox="0 0 540.37 540.37"><defs><style>.cls-1{fill:#fff;}.cls-1,.cls-2{stroke:#000;stroke-miterlimit:10;stroke-width:5px;}</style></defs><rect class="cls-1" x="2.5" y="2.5" width="535.37" height="535.37" rx="30.26"/><path class="cls-2" d="M82.71,152.18l184-88.92,190.62,88.92L269.44,241.66C159.63,190.32,135.16,179,134.71,178.92l-.19-.06-.19-.08-.13,4.59c0,1.6.12,6.56.21,7.77,0,.08,0,.46.06,1s0,.48.14,2.23c.88,10.76,1,14.31,2.08,21.78h0a96.68,96.68,0,0,0,2.25,15.36,61.82,61.82,0,0,0,3.27,11c.52,1.23,2,4.26,4.82,10.27.68,1.44,1.25,2.62,1.62,3.41-1.64,0-3.3-.08-5-.13q-4-.14-7.81-.33a188.18,188.18,0,0,0,2.15,26,212.64,212.64,0,0,0,4.45,21.12c2.37,9.42,4.87,17.32,6.94,23.34q-13.5-.5-27.49-.7-7.66-.1-15.2-.12c1.38-3.66,2.52-6.61,3.3-8.63,1.33-3.41,1.53-3.79,2.09-5.42,1.21-3.49,2.11-6.38,2.71-8.33,0,0,6.5-21.38,7.92-39.6a41.25,41.25,0,0,0,.31-7.19c0-.53-.07-1-.1-1.23-2.31,0-4.68.05-7.08.12-2,.06-4,.13-6,.23a94.07,94.07,0,0,0,4.57-10.06c3.72-9.63,5.62-19.27,7.14-45.3.42-7.18.86-16.6,1.11-27.71Z" transform="translate(0.18 0.18)"/><path class="cls-2" d="M172.19,218.87l-1.11,213.41,95.59,44.46,1.11-46.69,96.14-47.79-.55-155.61-21.68-.55.56,130-76.14,35q-.84-65.29-1.67-130.6Z" transform="translate(0.18 0.18)"/></svg>